<svg width="744" height="649" viewBox="0 0 744 649" fill="none" xmlns="http://www.w3.org/2000/svg">
<path d="M743.847 497.684H518.245V499.609H743.847V497.684Z" fill="#3F3D56"/>
<path d="M729.857 524.955H544.626V526.88H729.857V524.955Z" fill="#3F3D56"/>
<path d="M625.102 155.301H623.519V499.563H625.102V155.301Z" fill="#3F3D56"/>
<path d="M624.616 470.06C641.666 470.06 655.488 431.705 655.488 384.392C655.488 337.078 641.666 298.723 624.616 298.723C607.566 298.723 593.744 337.078 593.744 384.392C593.744 431.705 607.566 470.06 624.616 470.06Z" fill="#B1060F"/>
<path d="M624.616 274.659C641.666 274.659 655.488 236.304 655.488 188.991C655.488 141.678 641.666 103.323 624.616 103.323C607.566 103.323 593.744 141.678 593.744 188.991C593.744 236.304 607.566 274.659 624.616 274.659Z" fill="#E50914"/>
<path d="M625.375 119L623.858 118.447C623.954 118.058 633.261 79.2739 617.978 54.3065C609.347 40.2054 594.535 33.0553 573.954 33.0553V31.1301C595.066 31.1301 610.306 38.5435 619.253 53.1643C635.008 78.9144 625.473 118.602 625.375 119Z" fill="#3F3D56"/>
<path d="M573.955 56.1569C584.884 56.1569 593.744 45.383 593.744 32.0927C593.744 18.8024 584.884 8.02856 573.955 8.02856C563.025 8.02856 554.165 18.8024 554.165 32.0927C554.165 45.383 563.025 56.1569 573.955 56.1569Z" fill="#6FDB45"/>
<path d="M554.273 472.764H533.692V447.738H554.273V472.764ZM535.275 470.839H552.69V449.663H535.275V470.839Z" fill="#3F3D56"/>
<path d="M144.324 424.646C144.35 489.372 112.715 511.988 73.683 512.011C72.7764 512.011 71.8741 512 70.9762 511.975C69.1673 511.929 67.3771 511.83 65.6058 511.678C30.3773 508.666 2.99619 484.925 2.97218 424.729C2.9473 362.434 68.3909 283.781 73.2989 277.965C73.3032 277.965 73.3032 277.965 73.3076 277.96C73.494 277.738 73.5894 277.628 73.5894 277.628C73.5894 277.628 144.298 359.925 144.324 424.646Z" fill="#6FDB45"/>
<path d="M71.1066 502.112L96.9381 458.179L71.0435 506.933L70.9761 511.976C69.1671 511.929 67.377 511.83 65.6057 511.678L68.3648 446.924L68.3429 446.423L68.3905 446.328L68.6527 440.209L42.6541 391.364L68.7289 435.625L68.7945 436.923L70.8788 387.998L48.6187 337.521L71.1487 379.4L73.2988 277.965L73.3073 277.628L73.3074 277.96L72.975 357.952L95.0982 326.227L72.8823 364.841L72.3142 408.648L92.9757 366.596L72.2344 415.088L71.9188 439.447L101.904 380.912L71.805 447.945L71.1066 502.112Z" fill="#3F3D56"/>
<path d="M136.824 511.034H3.04565V512.959H136.824V511.034Z" fill="#3F3D56"/>
<path d="M527.605 16.3635H163.474V18.2887H527.605V16.3635Z" fill="#3F3D56"/>
<path d="M272.247 36.5775C280.553 36.5775 287.287 28.3893 287.287 18.2887C287.287 8.18815 280.553 0 272.247 0C263.941 0 257.207 8.18815 257.207 18.2887C257.207 28.3893 263.941 36.5775 272.247 36.5775Z" fill="#6FDB45"/>
<path d="M12.1155 290.846C10.2368 290.846 8.40023 290.169 6.83812 288.9C5.27601 287.631 4.05848 285.827 3.33953 283.716C2.62057 281.605 2.43246 279.283 2.79898 277.042C3.16551 274.802 4.07021 272.743 5.39868 271.128C6.72715 269.513 8.41972 268.413 10.2624 267.967C12.105 267.521 14.015 267.75 15.7507 268.624C17.4864 269.498 18.97 270.979 20.0137 272.878C21.0575 274.778 21.6146 277.011 21.6146 279.296C21.6118 282.358 20.6101 285.294 18.8293 287.46C17.0485 289.625 14.634 290.843 12.1155 290.846V290.846ZM12.1155 269.67C10.5499 269.67 9.01944 270.235 7.71768 271.292C6.41592 272.35 5.40132 273.853 4.80219 275.612C4.20305 277.371 4.04629 279.306 4.35172 281.174C4.65716 283.041 5.41108 284.756 6.51813 286.102C7.62519 287.448 9.03567 288.365 10.5712 288.736C12.1067 289.108 13.6984 288.917 15.1448 288.189C16.5912 287.46 17.8275 286.226 18.6973 284.643C19.5671 283.06 20.0314 281.199 20.0314 279.296C20.029 276.744 19.1942 274.297 17.7102 272.493C16.2262 270.688 14.2142 269.673 12.1155 269.67V269.67Z" fill="#3F3D56"/>
<path d="M147.068 247.477H126.487V222.45H147.068V247.477ZM128.07 245.551H145.485V224.375H128.07V245.551Z" fill="#3F3D56"/>
<path d="M352.577 590.463C547.299 590.463 705.153 586.005 705.153 580.505C705.153 575.005 547.299 570.547 352.577 570.547C157.854 570.547 0 575.005 0 580.505C0 586.005 157.854 590.463 352.577 590.463Z" fill="#3F3D56"/>
<path d="M352.577 620.337C487.385 620.337 596.668 617.251 596.668 613.443C596.668 609.636 487.385 606.549 352.577 606.549C217.769 606.549 108.485 609.636 108.485 613.443C108.485 617.251 217.769 620.337 352.577 620.337Z" fill="#3F3D56"/>
<path d="M352.688 648.942C462.657 648.942 551.804 646.424 551.804 643.318C551.804 640.212 462.657 637.694 352.688 637.694C242.719 637.694 153.572 640.212 153.572 643.318C153.572 646.424 242.719 648.942 352.688 648.942Z" fill="#3F3D56"/>
<path d="M435.726 530.621L430.51 555.285H454.85V530.621H435.726Z" fill="#FFB8B8"/>
<path d="M434.567 546.124C434.567 546.124 433.987 537.668 430.51 541.191C427.033 544.715 414.863 558.104 414.863 558.104C414.863 558.104 370.819 563.983 397.477 577.372C409.652 579.599 422.096 577.646 433.407 571.735C433.407 571.735 463.028 580.982 462.416 572.01C461.804 563.037 454.85 548.053 454.85 548.053C454.85 548.053 446.737 555.285 437.464 545.42L434.567 546.124Z" fill="#2F2E41"/>
<path d="M571.625 294.194C572.549 294.194 573.299 292.143 573.299 289.614C573.299 287.084 572.549 285.033 571.625 285.033C570.7 285.033 569.95 287.084 569.95 289.614C569.95 292.143 570.7 294.194 571.625 294.194Z" fill="#FFB8B8"/>
<path d="M378.628 75.1196L378.463 187.624L378.298 300.128L370.698 274.011V273.944L360.84 524.4C370.533 557.616 375.71 575.362 375.765 575.429C375.82 575.496 381.327 575.898 387.99 576.3C408.147 577.505 433.149 580.117 452.149 582.996C456.555 583.666 460.3 584.001 460.575 583.733C460.851 583.465 460.906 468.952 460.851 329.192L460.685 75.1196H378.628V75.1196Z" fill="#B1060F"/>
<path d="M230.21 74.7849V329.125C230.21 469.019 230.32 583.599 230.485 583.8C230.65 584.001 237.755 583.13 246.346 581.992C254.937 580.854 266.777 579.38 272.67 578.778C281.702 577.84 308.797 575.764 311.881 575.697C312.817 575.697 312.873 570.005 312.983 467.947L313.148 360.198L319.701 382.699C320.693 386.181 321.023 387.252 322.014 390.668L331.872 140.278C329.78 133.113 330.881 136.863 328.513 128.693C320.472 101.036 313.644 77.6645 313.368 76.593L312.817 74.7179H230.21L230.21 74.7849Z" fill="#B1060F"/>
<path d="M230.21 74.7848L313.093 360.399V360.265L319.646 382.765C356.049 508.06 375.599 575.295 375.709 575.429C375.765 575.496 381.272 575.898 387.935 576.3C408.092 577.505 433.094 580.117 452.094 582.996C456.445 583.666 460.245 584.001 460.465 583.733L378.298 300.061V300.128L370.698 274.011C363.263 248.497 358.307 231.42 328.403 128.693C320.362 101.036 313.533 77.6644 313.258 76.5929L312.707 74.7178H271.458L230.21 74.7847V74.7848Z" fill="#E50914"/>
</svg>
