<svg width="706" height="556" viewBox="0 0 706 556" fill="none" xmlns="http://www.w3.org/2000/svg">
<path d="M471.413 441.08L464.581 464.929H496.463V441.08H471.413Z" fill="#FFB8B8"/>
<path d="M396.624 0.636246L396.407 109.421L396.191 218.207L386.236 192.953V192.888L373.324 435.065C386.02 467.182 392.8 484.342 392.873 484.407C392.945 484.471 400.158 484.86 408.887 485.248C435.288 486.414 468.038 488.939 492.925 491.724C498.696 492.371 503.601 492.695 503.962 492.436C504.323 492.177 504.395 381.449 504.323 246.309L504.106 0.63623H396.624V0.636246Z" fill="#B1060F"/>
<path d="M202.218 0.312574V246.245C202.218 381.514 202.362 492.307 202.578 492.501C202.795 492.695 212.1 491.853 223.353 490.753C234.607 489.652 250.116 488.227 257.834 487.644C269.665 486.738 305.155 484.73 309.195 484.666C310.421 484.666 310.493 479.162 310.638 380.478L310.854 276.29L319.438 298.047C320.737 301.414 321.17 302.451 322.468 305.753L335.38 63.6411C332.639 56.7125 334.082 60.3387 330.98 52.4388C320.448 25.6958 311.503 3.09697 311.143 2.06094L310.421 0.247803H202.218L202.218 0.312574Z" fill="#B1060F"/>
<path d="M202.218 0.312635L310.782 276.485V276.355L319.366 298.112C367.048 419.265 392.656 484.277 392.8 484.407C392.873 484.472 400.086 484.86 408.815 485.249C435.216 486.414 467.966 488.939 492.853 491.724C498.552 492.371 503.529 492.695 503.817 492.436L396.191 218.142V218.207L386.236 192.953C376.498 168.282 370.005 151.77 330.836 52.4389C320.304 25.6958 311.359 3.09697 310.998 2.06094L310.277 0.247803H256.247L202.218 0.312559V0.312635Z" fill="#E50914"/>
<path d="M353.092 529.788C487.9 529.788 597.183 526.702 597.183 522.894C597.183 519.087 487.9 516 353.092 516C218.284 516 109 519.087 109 522.894C109 526.702 218.284 529.788 353.092 529.788Z" fill="#3F3D56"/>
<path d="M352.577 502.916C547.299 502.916 705.153 498.458 705.153 492.958C705.153 487.458 547.299 483 352.577 483C157.854 483 0 487.458 0 492.958C0 498.458 157.854 502.916 352.577 502.916Z" fill="#3F3D56"/>
<path d="M353.116 555.248C463.085 555.248 552.233 552.73 552.233 549.624C552.233 546.518 463.085 544 353.116 544C243.147 544 154 546.518 154 549.624C154 552.73 243.147 555.248 353.116 555.248Z" fill="#3F3D56"/>
</svg>
